<svg width="12" height="15" viewBox="0 0 12 15" fill="none" xmlns="http://www.w3.org/2000/svg">
<path d="M6 0.666748C7.5913 0.666748 9.11742 1.29889 10.2426 2.42411C11.3679 3.54933 12 5.07545 12 6.66675C12 9.15075 10.1067 11.7534 6.4 14.5334C6.2846 14.62 6.14425 14.6667 6 14.6667C5.85575 14.6667 5.7154 14.62 5.6 14.5334C1.89333 11.7534 0 9.15075 0 6.66675C0 5.07545 0.632141 3.54933 1.75736 2.42411C2.88258 1.29889 4.4087 0.666748 6 0.666748ZM6 4.66675C5.46957 4.66675 4.96086 4.87746 4.58579 5.25253C4.21071 5.62761 4 6.13632 4 6.66675C4 7.19718 4.21071 7.70589 4.58579 8.08096C4.96086 8.45603 5.46957 8.66675 6 8.66675C6.53043 8.66675 7.03914 8.45603 7.41421 8.08096C7.78929 7.70589 8 7.19718 8 6.66675C8 6.13632 7.78929 5.62761 7.41421 5.25253C7.03914 4.87746 6.53043 4.66675 6 4.66675Z" fill="#57C2A7"/>
</svg>
