<svg width="14" height="12" viewBox="0 0 14 12" fill="none" xmlns="http://www.w3.org/2000/svg">
<path d="M0.714355 3.78518L6.80236 6.95146C6.86342 6.98322 6.93124 6.99979 7.00007 6.99979C7.0689 6.99979 7.13672 6.98322 7.19778 6.95146L13.2858 3.78575V9.28575C13.2858 9.76011 13.1043 10.2165 12.7785 10.5613C12.4528 10.9061 12.0074 11.1132 11.5338 11.14L11.4286 11.1429H2.5715C2.09713 11.1429 1.64074 10.9614 1.29594 10.6356C0.951137 10.3099 0.744069 9.8645 0.717213 9.39089L0.714355 9.28575V3.78518ZM2.5715 0.857178H11.4286C11.903 0.857147 12.3594 1.03864 12.7042 1.36442C13.049 1.6902 13.2561 2.13557 13.2829 2.60918L13.2858 2.71432V2.81946L7.00007 6.08803L0.714355 2.81946V2.71432C0.714324 2.23996 0.895815 1.78356 1.2216 1.43876C1.54738 1.09396 1.99275 0.886891 2.46636 0.860035L2.5715 0.857178H11.4286H2.5715Z" fill="#57C2A7"/>
</svg>
