<svg width="14" height="14" viewBox="0 0 14 14" fill="none" xmlns="http://www.w3.org/2000/svg">
<path d="M9.16507 9.74002L10.2851 8.62002C10.4359 8.47104 10.6268 8.36906 10.8345 8.32646C11.0422 8.28385 11.2577 8.30246 11.4551 8.38002L12.8201 8.92502C13.0195 9.00596 13.1905 9.14411 13.3115 9.32207C13.4325 9.50003 13.4981 9.70983 13.5001 9.92502V12.425C13.4989 12.5714 13.4681 12.7161 13.4096 12.8502C13.3511 12.9844 13.266 13.1054 13.1595 13.2058C13.053 13.3062 12.9272 13.3841 12.7899 13.4346C12.6525 13.4852 12.5063 13.5074 12.3601 13.5C2.79507 12.905 0.865067 4.80502 0.500067 1.70502C0.483123 1.55279 0.498604 1.39869 0.545491 1.25288C0.592378 1.10706 0.669608 0.972817 0.772101 0.858988C0.874593 0.74516 1.00003 0.654323 1.14015 0.592452C1.28027 0.530582 1.4319 0.49908 1.58507 0.50002H4.00007C4.21557 0.500658 4.42596 0.565754 4.60416 0.686935C4.78237 0.808116 4.92025 0.97984 5.00007 1.18002L5.54507 2.54502C5.62519 2.74155 5.64564 2.95734 5.60384 3.16543C5.56205 3.37351 5.45987 3.56467 5.31007 3.71502L4.19007 4.83502C4.19007 4.83502 4.83507 9.20002 9.16507 9.74002Z" fill="#57C2A7"/>
</svg>
