<svg width="16" height="20" viewBox="0 0 16 20" fill="none" xmlns="http://www.w3.org/2000/svg">
<path d="M8.50035 0C4.22484 0 0 2.74072 0 7.17653C0 9.99739 1.65007 11.6002 2.65011 11.6002C3.06279 11.6002 3.30014 10.4942 3.30014 10.182C3.30014 9.80955 2.31276 9.01586 2.31276 7.46503C2.31276 4.24347 4.86287 1.95922 8.16301 1.95922C11.0005 1.95922 13.1005 3.51005 13.1005 6.35912C13.1005 8.48695 12.2132 12.4778 9.33772 12.4778C8.30035 12.4778 7.41231 11.7566 7.41231 10.7231C7.41231 9.20819 8.51235 7.74198 8.51235 6.17897C8.51235 3.52672 4.59952 4.00755 4.59952 7.21307C4.59952 7.88623 4.68686 8.6312 4.99954 9.24473C4.42418 11.6252 3.24947 15.1711 3.24947 17.6233C3.24947 18.3805 3.36214 19.1261 3.43681 19.8832C3.57815 20.0358 3.50748 20.0198 3.72416 19.9435C5.82424 17.1784 5.74957 16.638 6.69961 13.0196C7.2123 13.9575 8.53702 14.462 9.58706 14.462C14.0119 14.462 16 10.3147 16 6.57645C16 2.59776 12.4245 0.00128221 8.49969 0.00128221L8.50035 0Z" fill="#57C2A7"/>
</svg>
