<svg width="20" height="20" viewBox="0 0 20 20" fill="none" xmlns="http://www.w3.org/2000/svg">
<path d="M14.0035 6.89668C14.5006 6.89668 14.9035 6.49374 14.9035 5.99668C14.9035 5.49962 14.5006 5.09668 14.0035 5.09668C13.5065 5.09668 13.1035 5.49962 13.1035 5.99668C13.1035 6.49374 13.5065 6.89668 14.0035 6.89668Z" fill="#57C2A7"/>
<path d="M9.99969 6.1499C9.23798 6.1499 8.49338 6.37577 7.86005 6.79895C7.22671 7.22214 6.73309 7.82362 6.4416 8.52734C6.15011 9.23107 6.07384 10.0054 6.22244 10.7525C6.37104 11.4996 6.73784 12.1858 7.27644 12.7244C7.81505 13.263 8.50128 13.6298 9.24835 13.7784C9.99542 13.927 10.7698 13.8507 11.4735 13.5592C12.1772 13.2677 12.7787 12.7741 13.2019 12.1408C13.6251 11.5075 13.8509 10.7629 13.8509 10.0012C13.8509 8.97974 13.4452 8.00016 12.7229 7.27791C12.0007 6.55566 11.0211 6.1499 9.99969 6.1499ZM9.99969 12.5012C9.50524 12.5012 9.02189 12.3545 8.61076 12.0798C8.19964 11.8051 7.87921 11.4147 7.68999 10.9579C7.50077 10.501 7.45126 9.99838 7.54773 9.51343C7.64419 9.02847 7.88229 8.58302 8.23192 8.23338C8.58155 7.88375 9.02701 7.64565 9.51196 7.54919C9.99692 7.45273 10.4996 7.50223 10.9564 7.69145C11.4132 7.88067 11.8037 8.2011 12.0784 8.61223C12.3531 9.02335 12.4997 9.5067 12.4997 10.0012C12.4997 10.6642 12.2363 11.3001 11.7675 11.7689C11.2986 12.2378 10.6627 12.5012 9.99969 12.5012Z" fill="#57C2A7"/>
<path d="M10 3.85223C12.0025 3.85223 12.24 3.85973 13.0306 3.89598C13.5062 3.90162 13.9772 3.98893 14.4231 4.1541C14.7467 4.27891 15.0405 4.47007 15.2857 4.71528C15.5309 4.96048 15.7221 5.25431 15.8469 5.57785C16.012 6.02381 16.0994 6.49483 16.105 6.97035C16.1412 7.76098 16.1487 7.99848 16.1487 10.0016C16.1487 12.0047 16.1412 12.241 16.105 13.0316C16.0994 13.5071 16.012 13.9781 15.8469 14.4241C15.7221 14.7476 15.5309 15.0415 15.2857 15.2867C15.0405 15.5319 14.7467 15.723 14.4231 15.8479C13.9772 16.013 13.5062 16.1003 13.0306 16.106C12.24 16.1422 12.0025 16.1497 10 16.1497C7.9975 16.1497 7.76 16.1422 6.96938 16.106C6.49385 16.1003 6.02283 16.013 5.57688 15.8479C5.25334 15.723 4.95951 15.5319 4.7143 15.2867C4.46909 15.0415 4.27793 14.7476 4.15313 14.4241C3.98796 13.9781 3.90065 13.5071 3.895 13.0316C3.85875 12.241 3.85125 12.0035 3.85125 10.001C3.85125 7.99848 3.85875 7.76098 3.895 6.97035C3.90065 6.49483 3.98796 6.02381 4.15313 5.57785C4.27793 5.25431 4.46909 4.96048 4.7143 4.71528C4.95951 4.47007 5.25334 4.27891 5.57688 4.1541C6.02283 3.98893 6.49385 3.90162 6.96938 3.89598C7.76 3.85973 7.9975 3.85223 10 3.85223ZM10 2.50098C7.96312 2.50098 7.7075 2.50973 6.9075 2.54598C6.28548 2.55854 5.6701 2.67646 5.0875 2.89473C4.5892 3.08741 4.13666 3.38209 3.75889 3.75986C3.38111 4.13764 3.08644 4.59018 2.89375 5.08848C2.67541 5.67127 2.55749 6.28688 2.545 6.9091C2.50875 7.7091 2.5 7.96348 2.5 10.001C2.5 12.0385 2.50875 12.2935 2.545 13.0935C2.55756 13.7155 2.67548 14.3309 2.89375 14.9135C3.08644 15.4118 3.38111 15.8643 3.75889 16.2421C4.13666 16.6199 4.5892 16.9145 5.0875 17.1072C5.6703 17.3256 6.2859 17.4435 6.90813 17.456C7.70813 17.4922 7.96312 17.501 10 17.501C12.0369 17.501 12.2925 17.4922 13.0925 17.456C13.7147 17.4435 14.3303 17.3256 14.9131 17.1072C15.4114 16.9145 15.864 16.6199 16.2417 16.2421C16.6195 15.8643 16.9142 15.4118 17.1069 14.9135C17.325 14.3306 17.4427 13.715 17.455 13.0929C17.4913 12.2929 17.5 12.0385 17.5 10.001C17.5 7.96348 17.4913 7.70848 17.455 6.90848C17.4424 6.28646 17.3245 5.67107 17.1063 5.08848C16.9136 4.59018 16.6189 4.13764 16.2411 3.75986C15.8633 3.38209 15.4108 3.08741 14.9125 2.89473C14.3297 2.6766 13.7141 2.55889 13.0919 2.5466C12.2919 2.5091 12.0375 2.50098 10 2.50098Z" fill="#57C2A7"/>
</svg>
